<svg width="21" height="21" viewBox="0 0 21 21" fill="none" xmlns="http://www.w3.org/2000/svg">
<path d="M2.7955 1.2045C2.35616 0.765165 1.64384 0.765165 1.2045 1.2045C0.765165 1.64384 0.765165 2.35616 1.2045 2.7955L2.7955 1.2045ZM19.25 20.375C19.8713 20.375 20.375 19.8713 20.375 19.25V9.125C20.375 8.50368 19.8713 8 19.25 8C18.6287 8 18.125 8.50368 18.125 9.125V18.125H9.125C8.50368 18.125 8 18.6287 8 19.25C8 19.8713 8.50368 20.375 9.125 20.375H19.25ZM1.2045 2.7955L18.4545 20.0455L20.0455 18.4545L2.7955 1.2045L1.2045 2.7955Z" fill="white"/>
</svg>
